/* XPM */
static char *result[] = {
/* columns rows colors chars-per-pixel */
"75 75 13 1 ",
"  c #222222",
". c #62232F",
"X c #5F2D56",
"o c #8F4029",
"O c #C56025",
"+ c #993970",
"@ c #DC4A7B",
"# c #4BA747",
"$ c #EE8E2E",
"% c #FACB3E",
"& c gray62",
"* c #F78697",
"= c #FCCBA3",
/* pixels */
"&&&&&&&&&&&&&&&&&&&&&&&&&&&&&&&&&&&&&&&&&&&&&&&&&&&&&&&&&&&&&&&&&&&&&&&&&&&",
"&&&&&&&&&&&&&&&&&&&&&&&&&&&&&&&&&&&&&&&&&&&&&&&&&&&&&&&&&&&&&&&&&&&&&&&&&&&",
"&&&&&&&&&&&&&&&&&&&&&&&&&&&&&&&&&&&&&&&&&&&&&&&&&&&&&&&&&&&&&&&&&&&&&&&&&&&",
"&&&&&&&&&&&&&&&&&&&&&&&&&&&&&&&&&&&&&&&&&&&&&&&&&&&&&&&&&&&&&&&&&&&&&&&&&&&",
"&&&&&&&&&&&&&&&&&&&&&&&&&&&&&&&&&&&&&&&&&&&&&&&&&&&&&&&&&&&&&&&&&&&&&&&&&&&",
"&&&&&&&&&&&&&&&&&&&&&&&&&&&&&&&&&&&&&&&&&&&&&&&&&&&&&&&&&&&&&&&&&&&&&&&&&&&",
"&&&&&&&&&&&&&&&&&&&&&&&&&&&&&&&&&&&&&&&&&&&&&&&&&&&&&&&&&&&&&&&&&&&&&&&&&&&",
"&&&&&&&&&&&&&&&&&&&&&&&&&&&&&&&&&&&&&&&       &&&&&&&&&&&&&&&&&&&&&&&&&&&&&",
"&&&&&&&&&&&&&&&&&&&&&&&&&&&&&&&&&&&&&&&       &&&&&&&&&&&&&&&&&&&&&&&&&&&&&",
"&&&&&&&&&&&&&&&&&&&&&&&&&&&&&&&&&&&&&&&       &&&&&&&&&&&&&&&&&&&&&&&&&&&&&",
"&&&&&&&&&&&&&&&&&&&&&&&&&&&&&&         OOO%%%%       &&&&&&&&&&&&&&&&&&&&&&",
"&&&&&&&&&&&&&&&&&&&&&&&&&&&&&&         OOO%%%%       &&&&&&&&&&&&&&&&&&&&&&",
"&&&&&&&&&&&&&&&&&&&&&&&&&&&&&&         OOO%%%%       &&&&&&&&&&&&&&&&&&&&&&",
"&&&&&&&&&&&&&&&&&&&&&&&&&&    ..   OOOO@@@****%%       &&&&&&&&&&&&&&&&&&&&",
"&&&&&&&&&&&&&&&&&&&&&&&&&&    ..   OOOO@@@****%%       &&&&&&&&&&&&&&&&&&&&",
"&&&&&&&&&&&&&&&&&&&&&&&&&&    ..   OOOO@@@****%%       &&&&&&&&&&&&&&&&&&&&",
"&&&&&&&&&&&&&&&&&&&&&&&&&&    ..   OOOO@@@****%%       &&&&&&&&&&&&&&&&&&&&",
"&&&&&&&&&&&&&&&&&&&&&&&&&&    ..   OOOO@@@****%%       &&&&&&&&&&&&&&&&&&&&",
"&&&&&&&&&&&&&&&&&&&             OOO$$$$@@@@@@@$$%%%%%  &&&&&&&&&&&&&&&&&&&&",
"&&&&&&&&&&&&&&&&&&&             OOO$$$$@@@@@@@$$%%%%%  &&&&&&&&&&&&&&&&&&&&",
"&&&&&&&&&&&&&&&&&&&     OO$$$$$$$$$$$$$$$$$$$$$$%%%%%  &&&&&&&&&&&&&&&&&&&&",
"&&&&&&&&&&&&&&&&&&&     OO$$$$$$$$$$$$$$$$$$$$$$%%%%%  &&&&&&&&&&&&&&&&&&&&",
"&&&&&&&&&&&&&&&&&&&     OO$$$$$$$$$$$$$$$$$$$$$$%%%%%  &&&&&&&&&&&&&&&&&&&&",
"&&&&&&&&&&&&&&&&&&&     ..oooo..=====================..&&&&&&&&&&&&&&&&&&&&",
"&&&&&&&&&&&&&&&&&&&     ..oooo..=====================..&&&&&&&&&&&&&&&&&&&&",
"&&&&&&&&&&&&&&&&&&&     ..oooo..=====================..&&&&&&&&&&&&&&&&&&&&",
"&&&&&&&&&&&&&&&&&&&     ..oooo..=====================..&&&&&&&&&&&&&&&&&&&&",
"&&&&&&&&&&&&&&&&&&&     ..oooo==#######=========#####  &&&&&&&&&&&&&&&&&&&&",
"&&&&&&&&&&&&&&&&&&&     ..oooo==#######=========#####  &&&&&&&&&&&&&&&&&&&&",
"&&&&&&&&&&&&&&&&&&&     ..oooo==#######=========#####  &&&&&&&&&&&&&&&&&&&&",
"&&&&&&&&&&&&&&&&&&&     ..oooo==#######=========#####  &&&&&&&&&&&&&&&&&&&&",
"&&&&&&&&&&&&&&&&&&&     ..oooo==#######=========#####  &&&&&&&&&&&&&&&&&&&&",
"&&&&&&&&&&&&&&&&&&&     ..oooo==#######=========#####  &&&&&&&&&&&&&&&&&&&&",
"&&&&&&&&&&&&&&&&&&&     ..oooo=======================  &&&&&&&&&&&&&&&&&&&&",
"&&&&&&&&&&&&&&&&&&&     ..oooo=======================  &&&&&&&&&&&&&&&&&&&&",
"&&&&&&&&&&&&&&&&&&&     ..oooo=======================  &&&&&&&&&&&&&&&&&&&&",
"&&&&&&&&&&&&&&&&&&&     ..oooooo=====================  &&&&&&&&&&&&&&&&&&&&",
"&&&&&&&&&&&&&&&&&&&     ..oooooo=====================  &&&&&&&&&&&&&&&&&&&&",
"&&&&&&&&&&&&&&&&&&&     ..oooooo=====================  &&&&&&&&&&&&&&&&&&&&",
"&&&&&&&&&&&&&&&&   .......oooooooooXXXXXXX====XXXXXXX..   &&&&&&&&&&&&&&&&&",
"&&&&&&&&&&&&&&&&   .......oooooooooXXXXXXX====XXXXXXX..   &&&&&&&&&&&&&&&&&",
"&&&&&&&&&&&&&&&&   .......oooooooooXXXXXXX====XXXXXXX..   &&&&&&&&&&&&&&&&&",
"&&&&&&&&&&&&&&&&   .......oooooooooXXXXXXX====XXXXXXX..   &&&&&&&&&&&&&&&&&",
"&&&&&&&&&&&&&&  ........ooooooXXooo++++++++++++++++++.....     &&&&&&&&&&&&",
"&&&&&&&&&&&&&&  ........ooooooXXooo++++++++++++++++++.....     &&&&&&&&&&&&",
"&&&&&&&&&&&&&&  ........ooooooXXooo++++++++++++++++++.....     &&&&&&&&&&&&",
"&&&&&&&&&&&&&&  ........ooooooXXooo++++++++++++++++++.....     &&&&&&&&&&&&",
"&&&&&&&&&&&&&&                XX+++++++++++++++++++++          &&&&&&&&&&&&",
"&&&&&&&&&&&&&&                XX+++++++++++++++++++++          &&&&&&&&&&&&",
"&&&&&&&&&&&&&&&&&&&&&&&&  XXXXXXXXXXXXXXXX++++XX     &&&&&&&&&&&&&&&&&&&&&&",
"&&&&&&&&&&&&&&&&&&&&&&&&  XXXXXXXXXXXXXXXX++++XX     &&&&&&&&&&&&&&&&&&&&&&",
"&&&&&&&&&&&&&&&&&&&&&&&&  XXXXXXXXXXXXXXXX++++XX     &&&&&&&&&&&&&&&&&&&&&&",
"&&&&&&&&&&&&&&&&&&&&&&&&  XXXXXXXXXXXXXXXX++++XX     &&&&&&&&&&&&&&&&&&&&&&",
"&&&&&&&&&&&&&&&&&&&&&&&&  $$$$%%%%%%%%%%%%%%%%%%     &&&&&&&&&&&&&&&&&&&&&&",
"&&&&&&&&&&&&&&&&&&&&&&&&  $$$$%%%%%%%%%%%%%%%%%%     &&&&&&&&&&&&&&&&&&&&&&",
"&&&&&&&&&&&&&&&&&&&&&&&&  $$$$%%%%%%%%%%%%%%%%%%     &&&&&&&&&&&&&&&&&&&&&&",
"&&&&&&&&&&&&&&&&&&&     XX+++++++++++++++++++++++++++  &&&&&&&&&&&&&&&&&&&&",
"&&&&&&&&&&&&&&&&&&&     XX+++++++++++++++++++++++++++  &&&&&&&&&&&&&&&&&&&&",
"&&&&&&&&&&&&&&&&&&&     XX+++++++++++++++++++++++++++  &&&&&&&&&&&&&&&&&&&&",
"&&&&&&&&&&&&&&&&&&&     XX+++++++++++++++++++++++++++  &&&&&&&&&&&&&&&&&&&&",
"&&&&&&&&&&&&&&     XXXXX+++++++++++++++++++++++++++++  &&&&&&&&&&&&&&&&&&&&",
"&&&&&&&&&&&&&&     XXXXX+++++++++++++++++++++++++++++  &&&&&&&&&&&&&&&&&&&&",
"&&&&&&&&&&&&&&                                         &&&&&&&&&&&&&&&&&&&&",
"&&&&&&&&&&&&&&                                         &&&&&&&&&&&&&&&&&&&&",
"&&&&&&&&&&&&&&                                         &&&&&&&&&&&&&&&&&&&&",
"&&&&&&&&&&&&&&                                         &&&&&&&&&&&&&&&&&&&&",
"&&&&&&&&&&&&&&                                         &&&&&&&&&&&&&&&&&&&&",
"&&&&&&&&&&&&&&&&&&&&&&&&&&&&&&&&&&&&&&&&&&&&&&&&&&&&&&&&&&&&&&&&&&&&&&&&&&&",
"&&&&&&&&&&&&&&&&&&&&&&&&&&&&&&&&&&&&&&&&&&&&&&&&&&&&&&&&&&&&&&&&&&&&&&&&&&&",
"&&&&&&&&&&&&&&&&&&&&&&&&&&&&&&&&&&&&&&&&&&&&&&&&&&&&&&&&&&&&&&&&&&&&&&&&&&&",
"&&&&&&&&&&&&&&&&&&&&&&&&&&&&&&&&&&&&&&&&&&&&&&&&&&&&&&&&&&&&&&&&&&&&&&&&&&&",
"&&&&&&&&&&&&&&&&&&&&&&&&&&&&&&&&&&&&&&&&&&&&&&&&&&&&&&&&&&&&&&&&&&&&&&&&&&&",
"&&&&&&&&&&&&&&&&&&&&&&&&&&&&&&&&&&&&&&&&&&&&&&&&&&&&&&&&&&&&&&&&&&&&&&&&&&&",
"&&&&&&&&&&&&&&&&&&&&&&&&&&&&&&&&&&&&&&&&&&&&&&&&&&&&&&&&&&&&&&&&&&&&&&&&&&&",
"&&&&&&&&&&&&&&&&&&&&&&&&&&&&&&&&&&&&&&&&&&&&&&&&&&&&&&&&&&&&&&&&&&&&&&&&&&&"
};
