/* XPM */
static char *result[] = {
/* columns rows colors chars-per-pixel */
"75 75 171 2 ",
"   c #1C1C1C",
".  c #03351E",
"X  c #033A1E",
"o  c #043424",
"O  c #0B3323",
"+  c #033C23",
"@  c #093D27",
"#  c #0A3E29",
"$  c #143B2C",
"%  c #193C2C",
"&  c #252525",
"*  c #2D2D2D",
"=  c #392E26",
"-  c #332F2C",
";  c #3A2E2C",
":  c #3B3024",
">  c #35312D",
",  c #3B332D",
"<  c #223E33",
"1  c #343333",
"2  c #3B3532",
"3  c #3E3937",
"4  c #373838",
"5  c #3A3A39",
"6  c #5E3702",
"7  c #5C3904",
"8  c #5F390A",
"9  c #573E17",
"0  c #623702",
"q  c #633A01",
"w  c #6A3D02",
"e  c #643E0D",
"r  c #713F01",
"t  c #673F10",
"y  c #433D3B",
"u  c #044426",
"i  c #034A25",
"p  c #05442A",
"a  c #0C432A",
"s  c #034D2C",
"d  c #094C2A",
"f  c #13422E",
"g  c #04542B",
"h  c #025A2E",
"j  c #08582F",
"k  c #0F4432",
"l  c #1D4535",
"z  c #154F34",
"x  c #045632",
"c  c #0C5433",
"v  c #045A32",
"b  c #095932",
"n  c #0A5739",
"m  c #105334",
"M  c #185339",
"N  c #244535",
"B  c #264738",
"V  c #234C3A",
"C  c #2B483B",
"Z  c #33473C",
"A  c #27523E",
"S  c #2E513F",
"D  c #0F6239",
"F  c #5B411A",
"G  c #6D4102",
"H  c #64420E",
"J  c #734300",
"K  c #794701",
"L  c #764A04",
"P  c #764708",
"I  c #644013",
"U  c #5E4423",
"Y  c #5D4826",
"T  c #59462B",
"R  c #44413E",
"E  c #574D3B",
"W  c #594C3B",
"Q  c #694C27",
"!  c #2E4F40",
"~  c #354B41",
"^  c #3C4B42",
"/  c #2B5240",
"(  c #225D42",
")  c #315446",
"_  c #385647",
"`  c #3E544A",
"'  c #3D5A4E",
"]  c #454444",
"[  c #494644",
"{  c #454946",
"}  c #4B4A46",
"|  c #4A4748",
" . c #4C4C4B",
".. c #534A44",
"X. c #524E4C",
"o. c #44554C",
"O. c #4C534E",
"+. c #45594D",
"@. c #4A5B4F",
"#. c #575042",
"$. c #52524F",
"%. c #595049",
"&. c #4F4F51",
"*. c #544E50",
"=. c #465752",
"-. c #4C5452",
";. c #445A51",
":. c #4B5C53",
">. c #535353",
",. c #595655",
"<. c #565955",
"1. c #5A5956",
"2. c #575759",
"3. c #595759",
"4. c #565A58",
"5. c #595959",
"6. c #615E5D",
"7. c #546159",
"8. c #5F605F",
"9. c #63625F",
"0. c #736A5D",
"q. c #5F6161",
"w. c #517563",
"e. c #636463",
"r. c #6C6661",
"t. c #656966",
"y. c #6A6966",
"u. c #6A6768",
"i. c #6B6B6B",
"p. c #766961",
"a. c #716D6D",
"s. c #70706F",
"d. c #6B7670",
"f. c #737373",
"g. c #7A7A7A",
"h. c #937B5E",
"j. c #997F61",
"k. c #5C8270",
"l. c #5E8C75",
"z. c #5E8D78",
"x. c #628D7A",
"c. c #6F8879",
"v. c #68957E",
"b. c #9B845F",
"n. c #988265",
"m. c #7E8C84",
"M. c #729D81",
"N. c #6BA386",
"B. c #868686",
"V. c #8C8D8D",
"C. c #859E91",
"Z. c #959595",
"A. c #9A9594",
"S. c #9A9896",
"D. c #9E9E9E",
"F. c #A39A96",
"G. c #94A69B",
"H. c #A4A4A4",
"J. c #A9A9A7",
"K. c #A7AAA8",
"L. c #AAAAAA",
"P. c #B4B4B4",
"I. c #BCBCBC",
"U. c #A4C1B2",
"Y. c #B0CAB9",
"T. c #B2D3BF",
"R. c #C3C3C3",
"E. c #C7C9C8",
"W. c #CECECE",
"Q. c #D7D7D7",
"!. c #D4DFDB",
/* pixels */
"D.D.D.D.D.D.D.D.D.D.D.L.f.f. .>.>.>.B.D.D.D.D.D.D.D.s.f.5.>.-.&.>.D.D.D.D.D.D.D.D.D.D.D.D.f.s.u.&.>.-.| D.D.D.D.D.V.a.5.>.&.&.&.D.D.D.D.D.D.D.D.D.D.D.",
"D.D.D.D.D.D.D.D.D.D.D.L.g.g.,.2.3.5.V.D.D.D.D.D.D.D.f.g.5.5.,.3.,.D.D.D.D.D.D.D.D.D.D.D.D.s.f.s.2.2.3.3.D.D.D.D.G.Z.f.e.2.2.,.3.K.D.D.D.D.D.D.D.D.D.D.",
"D.D.D.D.D.D.D.D.D.D.D.D.i.t.5.5.5.5.V.D.D.D.D.D.D.D.g.g.5.5.5.5.5.D.D.D.D.D.D.D.D.D.D.D.D.s.g.s.5.5.5.2.D.D.D.D.D.Z.g.e.5.5.5.5.L.F.D.D.D.D.D.D.D.D.D.",
"D.D.D.D.D.D.D.D.D.D.D.D.5.5.5.5.5.6.V.D.D.D.D.D.D.D.f.g.5.5.5.5.5.D.D.D.D.D.D.D.D.D.D.D.D.s.g.a.5.5.5.2.D.D.D.D.D.S.f.e.,.6.5.5.J.D.D.D.D.D.D.D.D.D.D.",
"D.D.D.D.D.D.D.D.D.D.D.D.5.3.5.5.5.6.V.D.D.D.D.D.D.D.i.i.5.5.5.5.5.D.D.D.D.D.D.D.D.D.D.D.D.e.i.t.5.5.1.2.D.D.D.D.F.V.a.5.,.,.} ..S.D.D.D.D.D.D.D.D.D.D.",
"D.D.D.D.D.D.D.D.D.D.D.D.5.5.1.1.5.5.V.D.D.D.D.D.D.D.5.5.5.5.2.5.5.D.D.D.D.D.D.D.D.D.D.D.D.2.5.1.5.5.2.2.D.D.D.D.D.g.6.<.,.6.> 2 A.D.D.D.D.D.D.D.D.D.D.",
"D.D.D.D.D.D.D.D.D.D.D.D.5.,.X.X.,.5.g.G.D.D.D.D.D.D.2.2.>.>.&.5.5.J.D.D.D.D.D.D.G.F.D.D.D.,.5.2.5.5.5.,.I.R.R.R.R.i.>.,.,.1.] [ Z.D.D.D.D.D.D.D.D.D.D.",
"D.D.D.D.D.D.D.D.D.D.D.S.5.5.- 2 [ 5.5.2.1.2.1.2.3.5.2.,.{ ] ] 5.5.5.2.5.2.3.5.5.2.2.2.,.2.2.2.,.5.5.2.2.,.,.>.2.2.{ R >.5.<.1.5.K.D.D.D.D.D.D.D.D.D.D.",
"D.D.D.D.D.D.D.D.D.D.D.Z.3.5.- 2 ] 3.3.,.5.2.1.2.,.5.3.4.{ ] ] 5.,.5.5.2.5.5.5.,.,.1.1.3.2.5.4.5.5.5.2.5.>.2.,.,.2. .{ >.4.2.2.4.K.D.D.D.D.D.D.D.D.D.D.",
"D.D.D.D.D.D.D.D.D.D.D.Z.>.>.,.,.>.{  .3.,.5.2.2.2.2.1.2.3.5.5.2.2.5.2.5.5.5., y R 1.5.1.2.,.1.2.] ] 5.2.2.>.,.3.2.2.2.>.>.>.2.8.L.D.D.D.D.D.D.D.D.D.D.",
"D.D.D.D.D.D.D.D.D.D.D.Z.>.&.,.5.>.{ } 2.2.5.4.1.2.5.5.2.5.5.5.5.5.5.5.4.5.6.> , ] 5.4.,.2.5.3.2.] ] 2.5.>.>.>.3.2.5.2.>.>.>.2.8.L.D.D.D.D.D.D.D.D.D.D.",
"D.D.D.D.D.D.D.D.D.D.D.Z.>.&.>.,.>.&.>.2.2.>.>.>.>.>.>.>.3.5.5.2.5.5.2.1.5.5.5.5.5.5.2.5.5.,.4.5.,.4.>.>.>.>.>.>.>.2.1.,.O.$.>.4.H.D.D.D.D.D.D.D.D.D.D.",
"D.D.D.D.D.D.D.D.D.D.D.Z.,. .>.-.&.>.>.,.3.>.>.>.O.&.>.X.2.3.3.5.5.5.,.,.2.2.1.2.5.5.5.5.5.2.2.,.,.,.>.>.>.>.&.&.>.3.3.,.&.>.&.,.H.D.D.D.D.D.D.D.D.D.D.",
"D.D.D.D.D.D.D.D.D.D.D.Z.,.&.&.&.>.>.X.>.,.>.>. .] | -.>.>.>.,.>.>.,.>.>.>.-.>.>. .}  .6.2.,.X.>.-.&.y 2 X.&.&.>.&.{ { &.>.&.&.,.H.D.D.D.D.D.D.D.D.D.D.",
"D.D.D.D.D.D.D.D.D.D.D.D.>.&.X.>.>.&.&.&.-.>.>.&.] { >.&.&.>.>.>.>.>.>. . .>.&.>. .]  .>.2.>.-.&.>.&.= = *.>.>.>.>.{ ]  .>. .>.,.D.D.D.D.D.D.D.D.D.D.D.",
"D.D.D.D.D.D.D.D.D.D.D.D.D.D.] >.&.&.>.>.>.2 3 5 >.X.&.>.>.>.>.>.>.y 1 | >.-.>.>.2. .&.-.,.&.&.>.>.>. .X.>.>.>.>.>.>.&.>.>.{ D.D.D.D.D.D.D.D.D.D.D.D.D.",
"D.D.D.D.D.D.D.D.D.D.D.D.D.D.] >.>.&.>.>.&.> y 2 >. .>.&.>.>.>.>.*.y > [ -.>.O.>. .>.&.>.&.>.>.>.&.>.&.>.&.>.>.>.>.>.&.&.>.] D.D.D.D.D.D.D.D.D.D.D.D.D.",
"D.D.D.D.D.D.D.D.D.D.D.D.D.D.] &.&.>.&.>.&.; ; 2 &.&.&.>. .>.>.-.*.y 2 ] >.-.>.O.>.&.>.-.>.>. .>.*.&.>.&.&.>.>.>.>.&.>.&.X.] D.D.D.D.D.D.D.D.D.D.D.D.D.",
"D.D.D.D.D.D.D.D.D.D.D.D.D.D.D.D.D. . .} } } | }  . . . . .}  . .}  . . .} } } } | }  .| }  . . . . . . . . . . . . . .I.D.D.D.D.D.D.D.D.D.D.D.D.D.D.D.",
"D.D.D.D.D.D.D.D.D.D.D.D.D.D.D.D.D. . .} |  .} | ] { }  . .} {  .| | |  .{  . .O. .}  . .}  . .&. . . .|  . . . . . . .R.D.D.D.D.D.D.D.D.D.D.D.D.D.D.D.",
"D.D.D.D.D.D.D.D.D.D.D.D.D.D.D.D.D.,.X.> > ,.1.e.i.f.2.5.5.5.5.5.5.5.5.5.1.5.5.5.4.5.5.5.5.5.5.5.&.>.5.5.,.>.>.5.2.>.>.R.D.D.D.D.D.D.D.D.D.D.D.D.D.D.D.",
"D.D.D.D.D.D.D.D.D.D.D.D.D.D.D.D.D.5. .- > <.,.5.i.i.5.2.5.5.5.4.5.3.2.8.1.8.8.1.4.1.4.8.5.4.5.5.>.&.2.2.,.>.,.2.2.2.,.R.D.D.D.D.D.D.D.D.D.D.D.D.D.D.D.",
"D.D.D.D.D.D.D.D.D.D.D.D.D.D.D.D.D.5.>.[ ] i.i.i.5.5.5.,.,.5.2.5.2.2.,.e.i.s.> , R ,.e.i.s.2.2.1.&.X.,. .2.2.2.>.>.2.5.R.D.D.D.D.D.D.D.D.D.D.D.D.D.D.D.",
"D.D.D.D.D.D.D.D.D.D.D.D.D.D.D.D.H.5.X.] [ i.i.t.5.5.5.2.5.2.2.,.2.2.,.e.d.y.> , R $.9.i.i.,.2.4.>.>.>.>.2.,.4.O.>.2.2.R.D.D.D.D.D.D.D.D.D.D.D.D.D.D.D.",
"D.D.D.D.D.D.D.D.D.D.D.D.D.D.D.D.D.2.2.5.5.5.5.1.5.5.2.5.5.4.,.5.2.4.5.2.5.5.5.1.1.4.8.i.i.4.2.5.&.>.] R i.i.i.5.5.>.>.R.D.D.D.D.D.D.D.D.D.D.D.D.D.D.D.",
"D.D.D.D.D.D.D.D.D.D.D.D.D.D.D.D.D.,.5.5.5.2.3.2.5.5.,.4.2.1.5.2.5.,.2.5.5.5.4.4.4.4.8.y.i.,.5.5.&.>.{ ] i.i.i.5.5.>.>.I.D.D.D.D.D.D.D.D.D.D.D.D.D.D.D.",
"D.D.D.D.D.D.D.D.D.D.D.D.D.D.D.D.D.4.5.5.5.e.e.e.5.2.5.2.2.4.1.2.2.2.>.{ 5 4 5.5.2.5.2.e.e.e.5.5.>.>.3 y 5.6.5.2.4.>.>.R.D.D.D.D.D.D.D.D.D.D.D.D.D.D.D.",
"D.D.D.D.D.D.D.D.D.D.D.D.D.D.D.D.D.5.5.5.5.u.i.t.5.1.2.5.1.2.2.5.5.,.,.*   & 5.5.1.4.2.5.2.2.5.5.>.>., 2 X.-.,.5.1.>.>.R.D.D.D.D.D.D.D.D.D.D.D.D.D.D.D.",
"D.D.D.D.D.D.D.D.D.D.D.D.D.D.D.D.D.,.5.5.5.i.i.e.,.2.3.5.,.2.,.2.3.&.{ 1 & & { ^ } 2.2.2.5.2.2.,.>.>. .[ >.>.>.4.,.>.>.R.D.D.D.D.D.D.D.D.D.D.D.D.D.D.D.",
"D.D.D.D.D.D.D.D.D.D.D.D.D.D.D.D.D.5.5.5.5.5.5.2.4.2.2.3.5.2.5.5.3.4 * * * *     4 5.2.5.2.3.-.>.3.3.y.y.5.5.2.>.-.>.>.R.D.D.D.D.D.D.D.D.D.D.D.D.D.D.D.",
"D.D.D.D.D.D.D.D.D.D.D.D.D.D.D.D.D.B.g.5.5.5.5.5.1.5.,.&.4.5.5.5.2.4 - * * *     4 5.,.,.,.>.,.>.2.1.e.e.2.5.,.&.&.f.g.W.D.D.D.D.D.D.D.D.D.D.D.D.D.D.D.",
"D.D.D.D.D.D.D.D.D.D.D.D.D.D.D.D.D.D.D.2.5.5.5.5.5.5.{ { 5.5.5.5.3.4 * * * *     4 5.>.>.>.2.4.,.5.3.X.>.5.5.,.&.>.Q.D.D.D.D.D.D.D.D.D.D.D.D.D.D.D.D.D.",
"D.D.D.D.D.D.D.D.D.D.D.D.D.D.D.D.D.D.D.5.5.5.5.5.5.5.] ] ,.5.2.2.,.4 * 1 * *     4 5.1.>.>.,.,.,.2.2.-.&.5.5.5.>.>.Q.D.D.D.D.D.D.D.D.D.D.D.D.D.D.D.D.D.",
"D.D.D.D.D.D.D.D.D.D.D.D.D.D.D.D.D.D.D.5.5.q.5.5.i.i.3.5.t.i.i.1.3.4 * * * *     4 5.5.5.5.-.>.&.>.>.5.3.i.i.i.>.>.Q.D.D.D.D.D.D.D.D.D.D.D.D.D.D.D.D.D.",
"D.D.D.D.D.D.D.D.D.D.D.D.D.D.D.D.D.D.H.5.5.5.5.5.i.i.5.5.i.i.i.2.5.4 * * * *     4 5.5.2.3.>.-.>.>.>.5.5.i.i.i.&.&.Q.D.D.D.D.D.D.D.D.D.D.D.D.D.D.D.D.D.",
"D.D.D.D.D.D.D.D.D.D.D.D.D.D.D.D.D.D.H.5.5.5.5.1.5.5.a.i.5.2.5.3.3.,.5.5.5.5.5.5.5.5.2.2.,.,.3.,.>.>.>.X.5.5.5.>.>.Q.D.D.D.D.D.D.D.D.D.D.D.D.D.D.D.D.D.",
"D.D.D.D.D.D.D.D.D.D.D.D.D.D.D.D.D.D.D.5.4.1.2.4.5.5.s.y.6.3.3.2.2.5.5.5.5.2.5.2.5.2.5.5.1.4.,.5.>.>.&.>.5.3.5.>.>.Q.D.D.D.D.D.D.D.D.D.D.D.D.D.D.D.D.D.",
"D.D.D.D.D.D.D.D.D.D.D.D.D.D.D.D.D.D.D.2.5.2.2.4.4.5.> , >.3.3.5.5.5.5.5.2.5.2.1.2.5.,.>.>.2.2.2.] ] 2.5.>.>.>.>.>.Q.D.D.D.D.D.D.D.D.D.D.D.D.D.D.D.D.D.",
"D.D.D.D.D.D.D.D.D.D.D.D.D.D.D.D.D.D.D.1.,.2.4.4.4.1.> 2 X.3.2.3.,.2.5.5.,.5.5.4.5.2.,. .>.2.3.1.{ { >.5.>.>.>.>.,.Q.D.D.D.D.D.D.D.D.D.D.D.D.D.D.D.D.D.",
"D.D.D.D.D.D.D.D.D.D.D.D.D.D.D.D.D.D.D.2.5.2.1.4.1.1.$.,.6.3.2.4.5.5.i.5.2.2.5.,.5.5.5.u.t.>.>.>.,.>.>.2.&.>.>.2.5.Q.D.D.D.D.D.D.D.D.D.D.D.D.D.D.D.D.D.",
"D.D.D.D.D.D.D.D.D.D.D.D.D.D.D.D.D.D.D.5.4.1.2.2.5.5.5.1.5.5.2.5.5.t.i.6.5.5.5.1.5.5.6.i.i.>.>.&.5.3.X.$.>.&.>.5.5.Q.D.D.D.D.D.D.D.D.D.D.D.D.D.D.D.D.D.",
"D.D.D.D.D.D.D.D.D.D.D.D.D.D.D.D.D.D.D.2.1.2.2.1.5.5.5.1.3.5.5.5.5.t.i.6.1.1.5.5.5.,.e.i.i.&.&.>.3.,.>.$.X.>.&.5.5.Q.D.D.D.D.D.D.D.D.D.D.D.D.D.D.D.D.D.",
"D.D.D.D.D.D.D.D.D.D.D.D.D.D.D.D.D.D.D.2.3.&.>.>.5.5.5.5.1.5.5.5.5.5.,.y > - 1.<.2.,.2.&.-.,.,.5.1.5.1.,.5.,.2.-.2.Q.D.D.D.D.D.D.D.D.D.D.D.D.D.D.D.D.D.",
"D.D.D.D.D.D.D.D.D.D.D.D.D.D.D.D.D.D.D.,.1.O.>.>.5.5.5.5.,.2.2.5.5.5.5.y > > 5.8.4.,.4.>.>.,.2.2.2.,.6.,.1.2.,.$.>.!.D.D.D.D.D.D.D.D.D.D.D.D.D.D.D.D.D.",
"D.D.D.D.D.D.D.D.D.D.D.D.D.D.D.D.P.O.2.,.3.2.5.5.,.3.5.5.2.>.,.2.5.5.5.5.5.5.R ] O.5.1.1.,.>.>.>.2.5., , X.>.>.$.-.% o U.D.D.D.D.D.D.D.D.D.D.D.D.D.D.D.",
"D.D.D.D.D.D.D.D.D.D.D.D.D.D.D.D.P.2.2.1.5.1.5.5.3.3.5.5.,.>.>.,.5.5.8.5.5.5.] R $.5.5.5.2.>.X.>.5.5., 2 $.>.>.>.>.% @ U.D.D.D.D.D.D.D.D.D.D.D.D.D.D.D.",
"D.D.D.D.D.D.D.D.D.D.D.D.D.D.D.D.P.5.5.2.4.2.5.,.] ^ 2.2.2.2.3.5.5.u.f.6.5.5.s.a.,.- 3 4.>.2.4.,.- > , - X.$.>.2.,.4.<.E.D.D.D.D.D.D.D.D.D.D.D.D.D.D.D.",
"D.D.D.D.D.D.D.D.D.D.D.D.D.D.D.D.P.3.2.,.4.2.2.,.{ ] 2.,.,.4.5.5.5.t.i.5.5.5.i.a.$.> R O.>.,.5.$., , 2 , X.>.>.1.2.>.>.R.D.D.D.D.D.D.D.D.D.D.D.D.D.D.D.",
"D.D.D.D.D.D.D.D.D.D.D.D.D.D.D.D.P.2.4.1.2.5.1.,.] ] t.i.5.5.5.5.2.>.&.,.5.,.4.,.t.i.e.,.1.4.1.1.6.6.6.6.>.>.>.>.>.>.>.R.D.D.D.D.D.D.D.D.D.D.D.D.D.D.D.",
"D.D.D.D.D.D.D.D.D.D.D.D.D.D.D.D.P.1.1.2.,.4.5.3.{ ] i.a.5.5.5.6.2.,.>.,.5.4.4.4.8.t.e.2.2.4.2.4.,.,.,.1.>.,.>.>.>.>.>.E.D.D.D.D.D.D.D.D.D.D.D.D.D.D.D.",
"D.D.D.D.D.D.D.D.D.D.D.D.D.D.D.D.P.4.2.2.5.q.q.5.-. .e.q.e.5.5.5.5.,.&.&.-. .1.2.t.9.5.2.>.,.1.2.&.>.5.e.4.4.>.,.,.,.>.R.D.D.D.D.D.D.D.D.D.D.D.D.D.D.D.",
"D.D.D.D.D.D.D.D.D.D.D.D.D.D.D.D.P.2.1.1.2.i.i.t.4.2.2.5.5.5.5.5.5.2.3.&.] ] 4.5.4.<.,.-.>.,.4.2.] ] i.i.5.2.2.2.,.2.2.E.D.D.D.D.D.D.D.D.D.D.D.D.D.D.D.",
"D.D.D.D.D.D.D.D.D.D.D.D.D.D.D.D.P.5.3.2.1.r.i.9. .} 6.,.,.1.5.5.5.5.5.,. . .2.3.4.4.<.X.>.,.2.2. . .i.i.5.3.2.,.,.>.,.E.D.D.D.D.D.D.D.D.D.D.D.D.D.D.D.",
"D.D.D.D.D.D.D.D.D.D.D.D.D.D.D.D.P.5.2.5.1.1.7.%.> 2 ,.,.1.,.5.5.5.5.2.2.5.5.>.>.,.1.>.>.>.2.2.2.>.>.i.i.5.5.2.>.>.>.*.Y.D.D.D.D.D.D.D.D.D.D.D.D.D.D.D.",
"D.D.D.D.D.D.D.D.D.D.D.D.D.D.W.W.S.5.;.' ' <.,.%., , X.$.,.,.5.5.5.5.5.5.8.5.5.5.2.,.2.>.2.,.,.,.>.>.i.i.2.2.>.>.>.>.>.G.T.Y.D.D.D.D.D.D.D.D.D.D.D.D.D.",
"D.D.D.D.D.D.D.D.D.D.D.D.D.D.| >.X.$.) a a 7.6.$.2 , , , ,.,.,.5.5.5.2.e.i.i.i.i.e.4.3.2.5.>.>.>.,.2.i.i. .] ] ,.,.>.$.B u O D.D.D.D.D.D.D.D.D.D.D.D.D.",
"D.D.D.D.D.D.D.D.D.D.D.D.D.D.] >.>.X./ p p :.1.$.2 2 , > >.5.5.5.5.5.2.e.i.i.s.i.e.,.,.2.5.>.>.>.,.4.i.i. .] ] ,.,.-.>.N u . D.D.D.D.D.D.D.D.D.D.D.D.D.",
"D.D.D.D.D.D.D.D.D.D.D.D.D.D.] >.@.$.>.>.<.5.5.5.,.5.1.1.5.5.5.5.5.i.i.Q 0 q e w T X.>.5.5.-.>.&.>.O.a p :.,.4.>.>.>.>.N u X D.D.D.D.D.D.D.D.D.D.D.D.D.",
"D.D.D.D.D.D.D.D.D.D.D.D.D.D.} >.$.$.O.$.$.<.4.4.5.5.5.5.5.5.5.3.5.9.0.Q 0 q q w Y #.%.2.5.$.>.O.O.O.a p :.<.1.>.>.>.>.N u X D.D.D.D.D.D.D.D.D.D.D.D.D.",
"D.D.D.D.D.D.D.D.D.D.D.D.D.D.| -.O.$.1.i.i.% a < t.u. .,.3.5.2.a.a.W F 0 6 0 q w I F T &.>.>.4.<.>.-.' ' -.<.>.>.&.>.>.N u X D.D.D.D.D.D.D.D.D.D.D.D.D.",
"D.D.D.D.D.D.D.D.D.D.D.D.D.D.] O.X.#.<.i.d.# + l t.t.>.,.<.2.2.i.r.Y 6 0 0 0 q G w G F -.X.,.5.5.>.$.&.>.>.&.>.>.-.&.,.B u . D.D.D.D.D.D.D.D.D.D.D.D.D.",
"D.D.D.D.D.D.D.D.D.D.D.D.D.D.O f < y R $.>.o.` o.-.>.>.-.q.i.0.U I H G w 0 0 q q G G P t 9 #.&.&.>.>.&.>.>.>.&.u.y.! f ! +.~ D.D.D.D.D.D.D.D.D.D.D.D.D.",
"D.D.D.D.D.D.D.D.D.D.D.D.D.D.+ u f , R $.O.>.O.>.>.>.-.>.t.i.0.7 8 G J G q q q G J P r w t #.X.-.&.-.>.>.>.| >.i.i.B s ) X.{ D.D.D.D.D.D.D.D.D.D.D.D.D.",
"D.D.D.D.D.D.D.D.D.D.D.D.D.F.N _ ^ X.Z N l O.>.>.>.>.*.&.i.i.0.7 G G L G 0 q q q r K P w t E &.&.X.>.X.>.>.>.>.y ] ` _ o.>.{ D.D.D.D.D.D.D.D.D.D.D.D.D.",
"D.D.D.D.D.D.D.D.D.D.D.D.D.D.] X.>.>.S u u @.>.*.>.>.>.>.t.i.0.6 0 r K w q q w w J K J w e W X.&.>.X.>.>.>.>.X.- : ..>.-.>.{ D.D.D.D.D.D.D.D.D.D.D.D.D.",
"D.D.D.D.D.D.D.D.D.D.D.D.D.D.^ =.O.>.A u u +.>.>.>.>.>.&.u.i.0.6 0 r K r 0 q w w w J J w e W &. .>.&.&.>.>.X.X., : | O.O.-.} D.D.D.D.D.D.D.D.D.D.D.D.D.",
"D.D.D.D.D.D.D.D.D.D.D.D.D.D.o k l ] B p u ;.>.>.*.>.>.>.t.i.0.6 0 r J J 0 q w w r K J w e W &.X.&.&.>.>.>.>.>.>.>.l a ! $.} D.D.D.D.D.D.D.D.D.D.D.D.D.",
"D.D.D.D.D.D.D.D.D.D.D.D.D.D.o f < ] C a a ;.:.O. .>.>.>.i.i.p.6 0 r K w 0 q q G r J J q e W &.-.>.O.@.@.>.<. .&.&.$ a S @.~ D.D.D.D.D.D.D.D.D.D.D.D.D.",
"D.D.D.D.D.D.D.D.D.D.D.D.D.D.O.4.-.[ ] Z { m c V +.>.>.>.i.i.0.6 q J J w 0 0 w w w K J q H W &.X.>.-.n c Z ] ] $.>.-.:.A m a D.D.D.D.D.D.D.D.D.D.D.D.D.",
"D.D.D.D.D.D.D.D.D.D.D.D.D.D.o.7.O.{ { ] { m h M +.O.$.O.t.i.0.7 0 G K w 6 0 w w J J J w e W &. .-.-.x x ^ R { >.:.-.&.A h i D.D.D.D.D.D.D.D.D.D.D.D.D.",
"D.D.D.D.D.D.D.D.D.D.D.c.g s c n A $.O.-.O.c h h c c >.$.t.i.0.7 q J J G q q w w r J J q H W  .>.&.-.x v ' <.' M n ' o.A v x i d M.D.D.D.D.D.D.D.D.D.D.",
"D.D.D.D.D.D.D.D.D.D.D.v.h v v v ( O.@.-.=.m h h v x O. .y.i.0.7 0 G J G q 0 w w J J J w e W >.&.-.;.x x ' -.' c h _ O.A v v v D N.D.D.D.D.D.D.D.D.D.D.",
"D.D.D.D.D.D.D.D.D.+ s s h v v v x c z z c x v v v v b m w.i.0.6 0 w P G 0 0 w w J K J w e E =.' c c v v b c b v v j c c v h h h x i d F.D.D.D.D.D.D.D.",
"D.D.D.D.D.D.D.D.D.s v b v x x v v v x j j v v v v b b b w.a.p.8 q J J G q q w G J K J w e W -.' n h n v b h v h h b b h h j x v h h h D.D.D.D.D.D.D.D.",
"D.D.D.D.D.D.D.D.G.k.z.z.l.l.x.x.l.l.l.l.l.l.l.l.z.z.z.z.C.D.F.h.h.n.b.h.h.h.h.h.n.b.b.j.n.B.B.m.x.x.x.x.x.x.x.x.x.x.x.x.x.x.x.x.x.x.x.D.D.D.D.D.D.D.D."
};
