/* XPM */
static char *result[] = {
/* columns rows colors chars-per-pixel */
"75 75 13 1 ",
"  c #222222",
". c #62232F",
"X c #5F2D56",
"o c #314152",
"O c #8F4029",
"+ c #C56025",
"@ c #9F294E",
"# c #4BA747",
"$ c #EE8E2E",
"% c #FACB3E",
"& c gray62",
"* c #E2B694",
"= c #FCCBA3",
/* pixels */
"&&&&&&&&&&&&&&&&&&&&&&&&&&&&&&&&&&&&&&&&&&&&&&&&&&&&&&&&&&&&&&&&&&&&&&&&&&&",
"&&&&&&&&&&&&&&&&&&&&&&&&&&&&&&&&&&&&&&&&&&&&&&&&&&&&&&&&&&&&&&&&&&&&&&&&&&&",
"&&&&&&&&&&&&&&&&&&&&&&&&&&&&&&&&&&&&&&&&&&&&&&&&&&&&&&&&&&&&&&&&&&&&&&&&&&&",
"&&&&&&&&&&&&&&&&&&&&&       &&&&&&&       &&&&&&&       &&&&&&&&&&&&&&&&&&&",
"&&&&&&&&&&&&&&&&&&&&&       &&&&&&&       &&&&&&&       &&&&&&&&&&&&&&&&&&&",
"&&&&&&&&&&&&&&&&&&&&&       &&&&&&&       &&&&&&&       &&&&&&&&&&&&&&&&&&&",
"&&&&&&&&&&&&&&&&&&&&&   ++++       $$$$$$$       %%%    &&&&&&&&&&&&&&&&&&&",
"&&&&&&&&&&&&&&&&&&&&&   ++++       $$$$$$$       %%%    &&&&&&&&&&&&&&&&&&&",
"&&&&&&&&&&&&&&&&&&&&&   ++++       $$$$$$$       %%%    &&&&&&&&&&&&&&&&&&&",
"&&&&&&&&&&&&&&&&&&&&&   ++++$$$$$$$$$$$$$$$$$$$$$%%%    &&&&&&&&&&&&&&&&&&&",
"&&&&&&&&&&&&&&&&&&&&&   ++++$$$$$$$$$$$$$$$$$$$$$%%%    &&&&&&&&&&&&&&&&&&&",
"&&&&&&&&&&&&&&&&&&&&&   ++++$$$$$$$$$$$$$$$$$$$$$%%%    &&&&&&&&&&&&&&&&&&&",
"&&&&&&&&&&&&&&&&&&&&&                                   &&&&&&&&&&&&&&&&&&&",
"&&&&&&&&&&&&&&&&&&&&&                                   &&&&&&&&&&&&&&&&&&&",
"&&&&&&&&&&&&&&&&&&&&&                                   &&&&&&&&&&&&&&&&&&&",
"&&&&&&&&&&&&&&&&&    .................OOOOOOOOOOOOOO    &&&&&&&&&&&&&&&&&&&",
"&&&&&&&&&&&&&&&&&    .................OOOOOOOOOOOOOO    &&&&&&&&&&&&&&&&&&&",
"&&&&&&&&&&&&&&&&&    .................OOOOOOOOOOOOOO    &&&&&&&&&&&&&&&&&&&",
"&&&&&&&&&&&&&&&&&    .......*******==========*******    &&&&&&&&&&&&&&&&&&&",
"&&&&&&&&&&&&&&&&&    .......*******==========*******    &&&&&&&&&&&&&&&&&&&",
"&&&&&&&&&&&&&&&&&    .......*******==========*******    &&&&&&&&&&&&&&&&&&&",
"&&&&&&&&&&&&&&&&&    .......*******==========*******    &&&&&&&&&&&&&&&&&&&",
"&&&&&&&&&&&&&&&&&    ...****OOOOOOOOOOOOOO===OOOOOOO    &&&&&&&&&&&&&&&&&&&",
"&&&&&&&&&&&&&&&&&    ...****OOOOOOOOOOOOOO===OOOOOOO    &&&&&&&&&&&&&&&&&&&",
"&&&&&&&&&&&&&&&&&    ...****OOOOOOOOOOOOOO===OOOOOOO    &&&&&&&&&&&&&&&&&&&",
"&&&&&&&&&&&&&&&&&    ...****===#######===========###    &&&&&&&&&&&&&&&&&&&",
"&&&&&&&&&&&&&&&&&    ...****===#######===========###    &&&&&&&&&&&&&&&&&&&",
"&&&&&&&&&&&&&&&&&    ...****===#######===========###    &&&&&&&&&&&&&&&&&&&",
"&&&&&&&&&&&&&&&&&    .......===#######===========###    &&&&&&&&&&&&&&&&&&&",
"&&&&&&&&&&&&&&&&&    .......===#######===========###    &&&&&&&&&&&&&&&&&&&",
"&&&&&&&&&&&&&&&&&    .......===#######===========###    &&&&&&&&&&&&&&&&&&&",
"&&&&&&&&&&&&&&&&&    .......===*******===========***OOOO   &&&&&&&&&&&&&&&&",
"&&&&&&&&&&&&&&&&&    .......===*******===========***OOOO   &&&&&&&&&&&&&&&&",
"&&&&&&&&&&&&&&&&&    .......===*******===========***OOOO   &&&&&&&&&&&&&&&&",
"&&&&&&&&&&&&&&   ..............OOOO...OOOOOOOOOOOOOOOOOO   &&&&&&&&&&&&&&&&",
"&&&&&&&&&&&&&&   ..............OOOO...OOOOOOOOOOOOOOOOOO   &&&&&&&&&&&&&&&&",
"&&&&&&&&&&&&&&   ..............OOOO...OOOOOOOOOOOOOOOOOO   &&&&&&&&&&&&&&&&",
"&&&&&&&&&&&&&&          ....OOO....OOOOOOO.......OOOOOOO   &&&&&&&&&&&&&&&&",
"&&&&&&&&&&&&&&          ....OOO....OOOOOOO.......OOOOOOO   &&&&&&&&&&&&&&&&",
"&&&&&&&&&&&&&&          ....OOO....OOOOOOO.......OOOOOOO   &&&&&&&&&&&&&&&&",
"&&&&&&&&&&&&&&          ....OOO....OOOOOOO.......OOOOOOO   &&&&&&&&&&&&&&&&",
"&&&&&&&&&&&&&&&&&&&&&   XXXXXXXXXXX...OOOOOOOOOOOOOO    &&&&&&&&&&&&&&&&&&&",
"&&&&&&&&&&&&&&&&&&&&&   XXXXXXXXXXX...OOOOOOOOOOOOOO    &&&&&&&&&&&&&&&&&&&",
"&&&&&&&&&&&&&&&&&&&&&   XXXXXXXXXXX...OOOOOOOOOOOOOO    &&&&&&&&&&&&&&&&&&&",
"&&&&&&&&&&&&&&&&&    XXXXXXX@@@@@@@@@@ooooooooooo@@@    &&&&&&&&&&&&&&&&&&&",
"&&&&&&&&&&&&&&&&&    XXXXXXX@@@@@@@@@@ooooooooooo@@@    &&&&&&&&&&&&&&&&&&&",
"&&&&&&&&&&&&&&&&&    XXXXXXX@@@@@@@@@@ooooooooooo@@@    &&&&&&&&&&&&&&&&&&&",
"&&&&&&&&&&&&&&&&&    XXX@@@@@@@@@@@@@@@@@@@@@%%%%@@@    &&&&&&&&&&&&&&&&&&&",
"&&&&&&&&&&&&&&&&&    XXX@@@@@@@@@@@@@@@@@@@@@%%%%@@@    &&&&&&&&&&&&&&&&&&&",
"&&&&&&&&&&&&&&&&&    XXX@@@@@@@@@@@@@@@@@@@@@%%%%@@@    &&&&&&&&&&&&&&&&&&&",
"&&&&&&&&&&&&&&&&&    XXX@@@@@@@@@@@@@@@@@@XXXXXXX@@@    &&&&&&&&&&&&&&&&&&&",
"&&&&&&&&&&&&&&&&&    XXX@@@@@@@@@@@@@@@@@@XXXXXXX@@@    &&&&&&&&&&&&&&&&&&&",
"&&&&&&&&&&&&&&&&&    XXX@@@@@@@@@@@@@@@@@@XXXXXXX@@@    &&&&&&&&&&&&&&&&&&&",
"&&&&&&&&&&&&&&   XXXX@@@@@@@@@@@@@@@@@XXXXXXX@@@@@@@    &&&&&&&&&&&&&&&&&&&",
"&&&&&&&&&&&&&&   XXXX@@@@@@@@@@@@@@@@@XXXXXXX@@@@@@@    &&&&&&&&&&&&&&&&&&&",
"&&&&&&&&&&&&&&   XXXX@@@@@@@@@@@@@@@@@XXXXXXX@@@@@@@    &&&&&&&&&&&&&&&&&&&",
"&&&&&&&&&&&&&&   XXXX@@@@@@@@@@@@@@XXXXXXXooo@@@@@@@    &&&&&&&&&&&&&&&&&&&",
"&&&&&&&&&&&&&&   XXXX@@@@@@@@@@@@@@XXXXXXXooo@@@@@@@    &&&&&&&&&&&&&&&&&&&",
"&&&&&&&&&&&&&&   XXXX@@@@@@@@@@@@@@XXXXXXXooo@@@@@@@    &&&&&&&&&&&&&&&&&&&",
"&&&&&&&&&&&&&&   XXXX@@@@@@@@@@@@@@XXXXXXXooo@@@@@@@    &&&&&&&&&&&&&&&&&&&",
"&&&&&&&&&&&&&&   XXXX@@@@@@@XXXXXXX          oooo@@@    &&&&&&&&&&&&&&&&&&&",
"&&&&&&&&&&&&&&   XXXX@@@@@@@XXXXXXX          oooo@@@    &&&&&&&&&&&&&&&&&&&",
"&&&&&&&&&&&&&&   XXXX@@@@@@@XXXXXXX          oooo@@@    &&&&&&&&&&&&&&&&&&&",
"&&&&&&&&&&&&&&&&&       XXXX                 oooo   &&&&&&&&&&&&&&&&&&&&&&&",
"&&&&&&&&&&&&&&&&&       XXXX                 oooo   &&&&&&&&&&&&&&&&&&&&&&&",
"&&&&&&&&&&&&&&&&&       XXXX                 oooo   &&&&&&&&&&&&&&&&&&&&&&&",
"&&&&&&&&&&&&&&&&&&&&&&&&       &&&&&&&&&&&       &&&&&&&&&&&&&&&&&&&&&&&&&&",
"&&&&&&&&&&&&&&&&&&&&&&&&       &&&&&&&&&&&       &&&&&&&&&&&&&&&&&&&&&&&&&&",
"&&&&&&&&&&&&&&&&&&&&&&&&       &&&&&&&&&&&       &&&&&&&&&&&&&&&&&&&&&&&&&&",
"&&&&&&&&&&&&&&&&&&&&&&&&&&&&&&&&&&&&&&&&&&&&&&&&&&&&&&&&&&&&&&&&&&&&&&&&&&&",
"&&&&&&&&&&&&&&&&&&&&&&&&&&&&&&&&&&&&&&&&&&&&&&&&&&&&&&&&&&&&&&&&&&&&&&&&&&&",
"&&&&&&&&&&&&&&&&&&&&&&&&&&&&&&&&&&&&&&&&&&&&&&&&&&&&&&&&&&&&&&&&&&&&&&&&&&&",
"&&&&&&&&&&&&&&&&&&&&&&&&&&&&&&&&&&&&&&&&&&&&&&&&&&&&&&&&&&&&&&&&&&&&&&&&&&&",
"&&&&&&&&&&&&&&&&&&&&&&&&&&&&&&&&&&&&&&&&&&&&&&&&&&&&&&&&&&&&&&&&&&&&&&&&&&&",
"&&&&&&&&&&&&&&&&&&&&&&&&&&&&&&&&&&&&&&&&&&&&&&&&&&&&&&&&&&&&&&&&&&&&&&&&&&&"
};
