/* XPM */
static char *result[] = {
/* columns rows colors chars-per-pixel */
"75 75 9 1 ",
"  c #271839",
". c #431721",
"X c #6E2635",
"o c #1E275D",
"O c #445A4E",
"+ c #6B8F7C",
"@ c #7EBA99",
"# c gray62",
"$ c None",
/* pixels */
"###########################################################################",
"##########################################O################################",
"#########################################OO################################",
"#########################################+@O###############################",
"#######################################OO@@O###############################",
"########################################@@OOOO#O+##########################",
"#################################++@@@@+@+OO++++O##########################",
"##################################O++++@@+OO+++OO##########################",
"#################################### OO+@@++++O ###########################",
"#################################+++@@@+@@@+++OO###########################",
"################################# +@@@@+@@@@++OOO+#########################",
"##################################+@@++@@@@@++OO+O#########################",
"##################################+@@++O@@@@++OOOO#########################",
"########################### +++++@@@@OO+@@@+++OOO+++++O####################",
"############################# @@@@@@+++@@+@++++OOOOOO######################",
"##############################  @@@++++@+@@+++++OO  ####O++################",
"########################++######OO+++@@++@@+OO+++   ##OO+++################",
"########################@@@##O++++O+@+++++@+OOO+    O++++OO################",
"########################OO@@++++++O+O+++++++OOOOo   OO++Ooo################",
"##########################+@@@@@+OOO++++++++++O+OOOO   ####################",
"###########################O ++++O+OO+++O+O+++O+OOoo  #####################",
"############################OO+++O++O++OOOOO++++++ooo #####################",
"###############O+++++#####++OOOOO++++OOOOOOO++++++++o OOO##################",
"################OOOO+++OOO+++OOO+++OOOOO+O  OOO          ##################",
"#################  O++++++OOOOOOOOOOO++++O       O   oooooooo##############",
"################### OOO+++OOO+OOO+OOO++++O  OO   OOO OOOO++++oo############",
"#################### O++OOOO++OOO+OOO++++OO OOo  OOOOOOOO+++oo#############",
"##################### OOOOOO+++++++OO++++OOOOOooooOOOOOOO++oo##############",
"###################### OOO++++++++O+O++++OOOOOOoooooOOOooooo###############",
"################+++###  OOOO+++++O++O++++OOOOOOOooooOoooooo ###############",
"###############++++++OOOOO++++OOO+++O++O+OO   O+++oooooo   ################",
"###############OO++++OOOOOOOOOOO++++OOOO+OOO   O+++++OOO ooooooOooo########",
"###############OOOO++++++++OO+OO++OOOOOO+OOO     ++++O     ooOOOOOo########",
"############### OOOO++++++++++  +O OOOOOOO+O         oooooo  OOoooo########",
"################ OOOO++++++++   OO OOOOOOO+OOO  oo   ooooooo ooooo#########",
"#################  OOO++++++  OOO+OOOOOOO+++OO  ooooooooooooooo############",
"##############+++$$  .XXXX   ++++OO++OOO++++OOooooOOoooooooooOOOOO#########",
"############### OOOO OOO  OOOOOO+++OOOO+O+++oo oOOooOOOOOoo  oOOOOoo#######",
"############### OOOO OOO  OOOOOO+++OOOO+O+++oo oOOooOOOOOoo  oOOOOoo#######",
"###############     OOOOOOO OOOOO+OOOOOOO+++oo OOOOO oOOOOO   oOooo########",
"######++++####OOO   OOOOOOO  O  OOOOOOOOO O ooo oOOOO        ooo  #########",
"#####++++++++OOO OOOOOOOOOOO    OOOOOOOO    ooo  OOOO              ########",
"######OO+++++OO  OOOOOOOOOO     OOOOOOO     oooo        o           #######",
"#######OOOOOOOO    OOOOOOO    OOOOO  OO       oo     o  oooo      OOoo#####",
"######## OOOOOOO   OOOOOOO   OOOOO          ooooO     oooOOOOOOOOOOoo######",
"######### OOOOOOO  OOO                 O    ooooOOoo   ooooooOOOoooo#######",
"#############    OOOO OOOOOOO     O OOOOO       ooOOOO     oo  o###########",
"#############   OOO   OOOOOOOOOO  O OOOOOO       oooooo    o    oo#########",
"############         OOOOOOOOOOO  OOOOOOOOO                 oo    #########",
"#########OOO OO     OOOOOOOOOO   OOOOOOOOOO    o              oooooooOO####",
"########OOOOOOO    OOOOOOOOOO    OOOOOOOOOO    ooo    oo      ooooooOO#####",
"######OOOOOOOOO OOOOOOOOOOOOO   OOOOOOOOoo     oooooooooooo    ooooOO #####",
"#####OOOOOOOOOOO   OOOOO      OOOOOOOooo    ooo ooOOooooooooOO  OOoO ######",
"###### OOOOOOOOOO               ooooooo        oooooOooOoooOo       #######",
"########    OOOOOOOOO             oo              OOOOOOOOO     oooooo#####",
"##########    OOOOOO                                 oOOO         ooooooo##",
"##                                                                     ooo#",
"###                                                                    oooo",
"######                                                                ooooo",
"###                                                                      oo",
"##                                                                        o",
"###                                                                       #",
"######                                           o                 ooooooo#",
"#######                                             ooo             ooo   #",
"########                                            ooooo       ooo        ",
"########                                        oooooooooooo      oooo   ##",
"#######                                             ooooo   oooo    ooo   #",
"###                                                                  ######",
"#####                                         .                OOOOOOO#####",
"########                               .  .   .                 OOOO ######",
"##############O                        .      .                   #########",
"##############                         .      .               #############",
"################                       ..     . ####         ##############",
"################            #     #####  .      ###########################",
"######################  ################       ############################"
};
